STARTFONT 2.3
FONT -FontForge-Fredoka One-Book-R-Normal--12-120-72-72-P-69-ISO10646-1
SIZE 12 72 72  2
FONTBOUNDINGBOX 16 15 -2 -3
COMMENT "Generated by fontforge, http://fontforge.sourceforge.net"
COMMENT "Copyright (c) 2011 Milena B Brandao (milenabbrandao@gmail.com), with Reserved Font Name "Fredoka""
STARTPROPERTIES 40
FOUNDRY "FontForge"
FAMILY_NAME "Fredoka One"
WEIGHT_NAME "Book"
SLANT "R"
SETWIDTH_NAME "Normal"
ADD_STYLE_NAME ""
PIXEL_SIZE 12
POINT_SIZE 120
RESOLUTION_X 72
RESOLUTION_Y 72
SPACING "P"
AVERAGE_WIDTH 69
CHARSET_REGISTRY "ISO10646"
CHARSET_ENCODING "1"
FONTNAME_REGISTRY ""
CHARSET_COLLECTIONS "ISO10646-1"
BITS_PER_PIXEL 2
FONT_NAME "FredokaOne-Regular"
FACE_NAME "Fredoka One"
COPYRIGHT "Copyright (c) 2011 Milena B Brandao (milenabbrandao@gmail.com), with Reserved Font Name "Fredoka""
FONT_VERSION "1.001"
FONT_ASCENT 10
FONT_DESCENT 2
UNDERLINE_POSITION -1
UNDERLINE_THICKNESS 1
X_HEIGHT 6
CAP_HEIGHT 8
RAW_ASCENT 800
RAW_DESCENT 200
NORM_SPACE 3
RELATIVE_WEIGHT 40
RELATIVE_SETWIDTH 50
SUPERSCRIPT_X 0
SUPERSCRIPT_Y 5
SUPERSCRIPT_SIZE 7
SUBSCRIPT_X 0
SUBSCRIPT_Y 1
SUBSCRIPT_SIZE 7
AVG_LOWERCASE_WIDTH 67
AVG_UPPERCASE_WIDTH 82
ENDPROPERTIES
CHARS 235
STARTCHAR space
ENCODING 32
SWIDTH 253 0
DWIDTH 3 0
BBX 1 1 0 0
BITMAP
00
ENDCHAR
STARTCHAR exclam
ENCODING 33
SWIDTH 267 0
DWIDTH 3 0
BBX 3 9 0 0
BITMAP
64
78
78
78
78
64
10
78
78
ENDCHAR
STARTCHAR quotedbl
ENCODING 34
SWIDTH 429 0
DWIDTH 5 0
BBX 5 5 0 4
BITMAP
6280
B780
B380
7280
1100
ENDCHAR
STARTCHAR numbersign
ENCODING 35
SWIDTH 749 0
DWIDTH 9 0
BBX 9 9 0 0
BITMAP
064A00
074E00
1BAE40
7FFF80
0E2D00
6FBE00
BFFF40
1D3800
2C3400
ENDCHAR
STARTCHAR dollar
ENCODING 36
SWIDTH 475 0
DWIDTH 6 0
BBX 6 11 0 -1
BITMAP
0400
0E00
1F40
7FC0
B400
7F80
06D0
B6D0
7F80
0E00
0900
ENDCHAR
STARTCHAR percent
ENCODING 37
SWIDTH 838 0
DWIDTH 10 0
BBX 10 11 0 -1
BITMAP
000100
2A0600
7B4D00
735800
7F7400
19A140
00DFD0
029CA0
031ED0
0A0B80
040000
ENDCHAR
STARTCHAR ampersand
ENCODING 38
SWIDTH 748 0
DWIDTH 9 0
BBX 9 10 0 0
BITMAP
010000
1FE000
2EB400
2DF400
2FE000
2F8500
7FDF00
B6FE00
BEFF40
2FEB80
ENDCHAR
STARTCHAR quotesingle
ENCODING 39
SWIDTH 208 0
DWIDTH 3 0
BBX 3 5 0 4
BITMAP
60
B4
B0
70
10
ENDCHAR
STARTCHAR parenleft
ENCODING 40
SWIDTH 384 0
DWIDTH 5 0
BBX 5 13 0 -3
BITMAP
0100
0F40
2D00
3800
7400
B400
B400
B400
7400
7400
3C00
1F40
0640
ENDCHAR
STARTCHAR parenright
ENCODING 41
SWIDTH 384 0
DWIDTH 5 0
BBX 5 13 0 -3
BITMAP
1000
B800
2D00
0E00
0B00
0B00
0B40
0B40
0B00
0F00
1E00
BC00
A000
ENDCHAR
STARTCHAR asterisk
ENCODING 42
SWIDTH 503 0
DWIDTH 6 0
BBX 6 6 0 3
BITMAP
0A00
6F90
BFE0
2FC0
3FC0
1540
ENDCHAR
STARTCHAR plus
ENCODING 43
SWIDTH 527 0
DWIDTH 6 0
BBX 6 6 0 0
BITMAP
0B00
1F40
BFF0
6FA0
0B00
0500
ENDCHAR
STARTCHAR comma
ENCODING 44
SWIDTH 238 0
DWIDTH 3 0
BBX 3 5 0 -2
BITMAP
10
B4
B4
34
90
ENDCHAR
STARTCHAR hyphen
ENCODING 45
SWIDTH 433 0
DWIDTH 5 0
BBX 5 3 0 1
BITMAP
6A40
BFC0
1540
ENDCHAR
STARTCHAR period
ENCODING 46
SWIDTH 237 0
DWIDTH 3 0
BBX 3 3 0 0
BITMAP
10
B4
B4
ENDCHAR
STARTCHAR slash
ENCODING 47
SWIDTH 526 0
DWIDTH 6 0
BBX 6 11 0 -1
BITMAP
0040
00F0
01E0
03D0
0780
0F40
1F00
2D00
7C00
B400
6000
ENDCHAR
STARTCHAR zero
ENCODING 48
SWIDTH 608 0
DWIDTH 7 0
BBX 7 9 0 0
BITMAP
0B90
3FF4
7DB8
B87C
B43C
B47C
78B8
3FF4
1FE0
ENDCHAR
STARTCHAR one
ENCODING 49
SWIDTH 407 0
DWIDTH 5 0
BBX 5 9 0 0
BITMAP
0640
2F40
BF40
BF40
0B40
0B40
0B40
0B40
0B40
ENDCHAR
STARTCHAR two
ENCODING 50
SWIDTH 609 0
DWIDTH 7 0
BBX 7 9 0 0
BITMAP
1B90
3FF0
B9B8
B478
11F8
0BE0
3F80
BFFC
7FFC
ENDCHAR
STARTCHAR three
ENCODING 51
SWIDTH 608 0
DWIDTH 7 0
BBX 7 9 0 0
BITMAP
1B90
3FF4
79B8
06F8
07F0
11B8
B87C
7FF8
1FE0
ENDCHAR
STARTCHAR four
ENCODING 52
SWIDTH 592 0
DWIDTH 7 0
BBX 7 9 0 0
BITMAP
2864
3DB8
3CB8
78B8
BAB8
BFF8
55B8
00B8
0074
ENDCHAR
STARTCHAR five
ENCODING 53
SWIDTH 530 0
DWIDTH 6 0
BBX 6 9 0 0
BITMAP
2AA0
7FE0
7940
BE40
BFD0
6AF0
21F0
BFE0
6F80
ENDCHAR
STARTCHAR six
ENCODING 54
SWIDTH 560 0
DWIDTH 7 0
BBX 7 9 0 0
BITMAP
02A0
1FF0
3E50
7D00
BFD0
BEF4
B8B4
7FF0
1FD0
ENDCHAR
STARTCHAR seven
ENCODING 55
SWIDTH 561 0
DWIDTH 7 0
BBX 7 9 0 0
BITMAP
6AA4
BFF8
15F4
02E0
07C0
0F80
1F00
2E00
1D00
ENDCHAR
STARTCHAR eight
ENCODING 56
SWIDTH 582 0
DWIDTH 7 0
BBX 7 9 0 0
BITMAP
1B90
3FF0
7CF4
7EF4
3FF0
B9B8
B8B8
7FF4
1FD0
ENDCHAR
STARTCHAR nine
ENCODING 57
SWIDTH 560 0
DWIDTH 7 0
BBX 7 9 0 0
BITMAP
1B80
7FF0
B8F4
B9F4
3FF4
05F0
06E0
7FC0
7E00
ENDCHAR
STARTCHAR colon
ENCODING 58
SWIDTH 238 0
DWIDTH 3 0
BBX 3 6 0 0
BITMAP
B4
B4
00
10
B4
B4
ENDCHAR
STARTCHAR semicolon
ENCODING 59
SWIDTH 237 0
DWIDTH 3 0
BBX 3 8 0 -2
BITMAP
B4
B4
00
10
B4
B4
34
90
ENDCHAR
STARTCHAR less
ENCODING 60
SWIDTH 627 0
DWIDTH 8 0
BBX 8 8 0 0
BITMAP
006C
02F8
1FD0
BE00
7E40
1BE0
01FD
002C
ENDCHAR
STARTCHAR equal
ENCODING 61
SWIDTH 478 0
DWIDTH 6 0
BBX 6 5 0 0
BITMAP
7F90
BFD0
1540
BFD0
5A40
ENDCHAR
STARTCHAR greater
ENCODING 62
SWIDTH 627 0
DWIDTH 8 0
BBX 8 8 0 0
BITMAP
B800
7F40
0BE4
01FD
02FC
1FE0
BE00
6400
ENDCHAR
STARTCHAR question
ENCODING 63
SWIDTH 512 0
DWIDTH 6 0
BBX 6 9 0 0
BITMAP
2F80
BFD0
B1E0
02E0
0BC0
0A00
0000
0F00
0F00
ENDCHAR
STARTCHAR at
ENCODING 64
SWIDTH 908 0
DWIDTH 11 0
BBX 11 10 0 -2
BITMAP
06FE40
1FABD0
38A9B0
B2FE34
B35D38
B3FD38
75ADB4
3D1FE0
1FD540
019000
ENDCHAR
STARTCHAR A
ENCODING 65
SWIDTH 765 0
DWIDTH 9 0
BBX 9 9 0 0
BITMAP
009000
02F000
07F400
0BFC00
0F7D00
2FBE00
3FFF40
B80B80
B40380
ENDCHAR
STARTCHAR B
ENCODING 66
SWIDTH 646 0
DWIDTH 8 0
BBX 8 9 0 0
BITMAP
6AA0
BFF8
B97C
B87C
B9FC
B87D
B87D
BFFC
7FE4
ENDCHAR
STARTCHAR C
ENCODING 67
SWIDTH 679 0
DWIDTH 8 0
BBX 8 9 0 0
BITMAP
06A8
1FFE
7E59
B800
B400
B800
7D09
2FFE
07F9
ENDCHAR
STARTCHAR D
ENCODING 68
SWIDTH 704 0
DWIDTH 8 0
BBX 8 9 0 0
BITMAP
6A90
BFF8
B9BE
B81F
B80F
B81F
B87E
BFFC
7FE0
ENDCHAR
STARTCHAR E
ENCODING 69
SWIDTH 638 0
DWIDTH 8 0
BBX 8 9 0 0
BITMAP
6AA8
BFFD
B954
B950
BFF0
BEA0
B800
BFFD
7FFD
ENDCHAR
STARTCHAR F
ENCODING 70
SWIDTH 637 0
DWIDTH 8 0
BBX 8 9 0 0
BITMAP
6AA8
BFFD
B954
B950
BFF0
BEA0
B800
B800
7400
ENDCHAR
STARTCHAR G
ENCODING 71
SWIDTH 714 0
DWIDTH 9 0
BBX 8 9 0 0
BITMAP
06F8
1FFE
7E59
B815
B4BF
B85F
7D1F
2FFF
07FD
ENDCHAR
STARTCHAR H
ENCODING 72
SWIDTH 699 0
DWIDTH 8 0
BBX 8 9 0 0
BITMAP
640A
B81F
B81F
B95F
BFFF
B96F
B81F
B81F
740E
ENDCHAR
STARTCHAR I
ENCODING 73
SWIDTH 257 0
DWIDTH 3 0
BBX 3 9 0 0
BITMAP
64
B8
B8
B8
B8
B8
B8
B8
74
ENDCHAR
STARTCHAR J
ENCODING 74
SWIDTH 549 0
DWIDTH 7 0
BBX 6 9 0 0
BITMAP
00A0
00F0
00F0
00F0
00F0
00F0
61F0
BFE0
2F80
ENDCHAR
STARTCHAR K
ENCODING 75
SWIDTH 639 0
DWIDTH 8 0
BBX 7 9 0 0
BITMAP
6428
B8BC
B9F4
BFD0
BF80
BFD0
BAF4
B8BC
742C
ENDCHAR
STARTCHAR L
ENCODING 76
SWIDTH 587 0
DWIDTH 7 0
BBX 7 9 0 0
BITMAP
6400
B800
B800
B800
B800
B800
B800
BEA4
7FF8
ENDCHAR
STARTCHAR M
ENCODING 77
SWIDTH 870 0
DWIDTH 10 0
BBX 10 9 0 0
BITMAP
6400A0
BD02F0
BF0BF0
BF9FF0
BBFEF0
B9F8F0
B860F0
B800F0
7400E0
ENDCHAR
STARTCHAR N
ENCODING 78
SWIDTH 720 0
DWIDTH 9 0
BBX 8 9 0 0
BITMAP
640A
BD0F
BF0F
BF8F
BBDF
B9FF
B8BF
B82F
740F
ENDCHAR
STARTCHAR O
ENCODING 79
SWIDTH 775 0
DWIDTH 9 0
BBX 9 9 0 0
BITMAP
06E400
1FFE00
7E5F40
B807C0
B407C0
B807C0
7D1F80
2FFF00
0BF800
ENDCHAR
STARTCHAR P
ENCODING 80
SWIDTH 632 0
DWIDTH 8 0
BBX 8 9 0 0
BITMAP
6A90
BFF8
B97C
B83D
BABC
BFF4
BE90
B800
7400
ENDCHAR
STARTCHAR Q
ENCODING 81
SWIDTH 830 0
DWIDTH 10 0
BBX 10 9 0 0
BITMAP
06E400
1FFE00
7E5F40
B807C0
B407C0
B807C0
7D1F80
2FFFE0
0BFAD0
ENDCHAR
STARTCHAR R
ENCODING 82
SWIDTH 631 0
DWIDTH 8 0
BBX 8 9 0 0
BITMAP
6A90
BFF8
B97C
B83D
BABC
BFF8
BEB8
B83D
742D
ENDCHAR
STARTCHAR S
ENCODING 83
SWIDTH 583 0
DWIDTH 7 0
BBX 7 9 0 0
BITMAP
1B90
7FF0
7850
7E40
2FF0
06F8
74B8
BFF4
2FD0
ENDCHAR
STARTCHAR T
ENCODING 84
SWIDTH 731 0
DWIDTH 9 0
BBX 9 9 0 0
BITMAP
AAAA40
BFFF40
02D000
02D000
02D000
02D000
02D000
02D000
02D000
ENDCHAR
STARTCHAR U
ENCODING 85
SWIDTH 726 0
DWIDTH 9 0
BBX 9 9 0 0
BITMAP
640A00
B80F40
B80F40
B80F40
B80F40
780F00
7D2F00
2FFD00
0BF400
ENDCHAR
STARTCHAR V
ENCODING 86
SWIDTH 783 0
DWIDTH 9 0
BBX 9 9 0 0
BITMAP
600280
B807C0
7C0B80
2E0F00
1F2E00
0BBC00
07F800
02F400
01E000
ENDCHAR
STARTCHAR W
ENCODING 87
SWIDTH 999 0
DWIDTH 12 0
BBX 12 9 0 0
BITMAP
602809
B87D2E
7CBE3D
3CFF7C
2EFFB8
1FEBF4
0FD7F0
0BC3E0
0741D0
ENDCHAR
STARTCHAR X
ENCODING 88
SWIDTH 741 0
DWIDTH 9 0
BBX 9 9 0 0
BITMAP
740740
BC1F80
2F7E00
0FF800
07F000
0BF800
2F7E00
BD1F40
740740
ENDCHAR
STARTCHAR Y
ENCODING 89
SWIDTH 686 0
DWIDTH 8 0
BBX 8 9 0 0
BITMAP
700A
B82F
3D7D
1FB8
0BF0
03D0
03D0
03D0
02C0
ENDCHAR
STARTCHAR Z
ENCODING 90
SWIDTH 643 0
DWIDTH 8 0
BBX 8 9 0 0
BITMAP
6AA8
BFFC
15F8
02F0
07D0
1F40
3E00
BFFD
7FFD
ENDCHAR
STARTCHAR bracketleft
ENCODING 91
SWIDTH 348 0
DWIDTH 4 0
BBX 4 13 0 -3
BITMAP
15
7F
B9
B4
B4
B4
B4
B4
B4
B4
B4
BF
6A
ENDCHAR
STARTCHAR backslash
ENCODING 92
SWIDTH 528 0
DWIDTH 6 0
BBX 6 11 0 -1
BITMAP
1000
B400
7800
3D00
1E00
0F40
0B80
03D0
02E0
00F0
0050
ENDCHAR
STARTCHAR bracketright
ENCODING 93
SWIDTH 348 0
DWIDTH 4 0
BBX 4 13 0 -3
BITMAP
14
BE
6E
1E
1E
1E
1E
1E
1E
1E
1E
BE
69
ENDCHAR
STARTCHAR asciicircum
ENCODING 94
SWIDTH 526 0
DWIDTH 6 0
BBX 6 4 0 3
BITMAP
0500
1F40
7ED0
74A0
ENDCHAR
STARTCHAR underscore
ENCODING 95
SWIDTH 826 0
DWIDTH 10 0
BBX 10 2 0 -3
BITMAP
BFFFE0
AAAA90
ENDCHAR
STARTCHAR grave
ENCODING 96
SWIDTH 482 0
DWIDTH 6 0
BBX 4 2 1 7
BITMAP
B9
6E
ENDCHAR
STARTCHAR a
ENCODING 97
SWIDTH 596 0
DWIDTH 7 0
BBX 7 7 0 0
BITMAP
0110
2FF8
7FF8
B8B8
B9B8
7FF8
1BB8
ENDCHAR
STARTCHAR b
ENCODING 98
SWIDTH 592 0
DWIDTH 7 0
BBX 7 10 0 0
BITMAP
1000
7800
B800
B940
BFE0
BFF4
B878
BDB8
BFF4
7BD0
ENDCHAR
STARTCHAR c
ENCODING 99
SWIDTH 517 0
DWIDTH 6 0
BBX 6 7 0 0
BITMAP
0540
2FE0
7EE0
B800
B840
7FE0
1BD0
ENDCHAR
STARTCHAR d
ENCODING 100
SWIDTH 598 0
DWIDTH 7 0
BBX 7 10 0 0
BITMAP
0010
0078
0078
0178
2FF8
7FF8
B8B8
B8B8
3FF8
1BB8
ENDCHAR
STARTCHAR e
ENCODING 101
SWIDTH 573 0
DWIDTH 7 0
BBX 7 7 0 0
BITMAP
0540
2FF0
7EF4
BAB4
BE90
7EB0
1FF0
ENDCHAR
STARTCHAR f
ENCODING 102
SWIDTH 450 0
DWIDTH 5 0
BBX 6 10 0 0
BITMAP
0100
0FC0
2F80
2E40
BFD0
BF80
2D00
2D00
2D00
2D00
ENDCHAR
STARTCHAR g
ENCODING 103
SWIDTH 585 0
DWIDTH 7 0
BBX 7 10 0 -3
BITMAP
0510
2FF8
7EF8
B4B8
B9F8
3FF8
1AB8
25F4
3FE0
0A40
ENDCHAR
STARTCHAR h
ENCODING 104
SWIDTH 605 0
DWIDTH 7 0
BBX 7 10 0 0
BITMAP
1000
7800
B800
B840
BFE0
BFF4
B878
B878
B878
7478
ENDCHAR
STARTCHAR i
ENCODING 105
SWIDTH 255 0
DWIDTH 3 0
BBX 3 10 0 0
BITMAP
10
78
64
10
78
B8
B8
B8
B8
74
ENDCHAR
STARTCHAR j
ENCODING 106
SWIDTH 252 0
DWIDTH 3 0
BBX 5 13 -2 -3
BITMAP
0100
0780
0640
0100
0780
0B80
0B80
0B80
0B80
0B80
1F40
BE00
6400
ENDCHAR
STARTCHAR k
ENCODING 107
SWIDTH 536 0
DWIDTH 6 0
BBX 6 10 0 0
BITMAP
1000
7800
B800
B800
B9D0
BFE0
BF80
BFC0
BAF0
74B0
ENDCHAR
STARTCHAR l
ENCODING 108
SWIDTH 327 0
DWIDTH 4 0
BBX 4 10 0 0
BITMAP
10
78
B8
B8
B8
B8
B8
B8
7E
2E
ENDCHAR
STARTCHAR m
ENCODING 109
SWIDTH 851 0
DWIDTH 10 0
BBX 10 7 0 0
BITMAP
114100
7BEFC0
BFFFE0
B8F5E0
B8F5E0
B8F5E0
74B1E0
ENDCHAR
STARTCHAR n
ENCODING 110
SWIDTH 606 0
DWIDTH 7 0
BBX 7 7 0 0
BITMAP
1140
7FE0
BFF4
B878
B878
B878
7478
ENDCHAR
STARTCHAR o
ENCODING 111
SWIDTH 600 0
DWIDTH 7 0
BBX 7 7 0 0
BITMAP
0540
2FE0
7EF8
B87C
B8B8
7FF4
1FD0
ENDCHAR
STARTCHAR p
ENCODING 112
SWIDTH 582 0
DWIDTH 7 0
BBX 7 10 0 -3
BITMAP
1140
7FE0
BEF4
B878
BDB8
BFF0
BA90
B800
B800
6400
ENDCHAR
STARTCHAR q
ENCODING 113
SWIDTH 582 0
DWIDTH 7 0
BBX 7 10 0 -3
BITMAP
0510
2FF4
7EF8
B4B8
B9F8
3FF8
1AB8
00B8
00B4
0064
ENDCHAR
STARTCHAR r
ENCODING 114
SWIDTH 457 0
DWIDTH 5 0
BBX 6 7 0 0
BITMAP
1140
7FD0
BE80
B800
B800
B800
7400
ENDCHAR
STARTCHAR s
ENCODING 115
SWIDTH 489 0
DWIDTH 6 0
BBX 6 7 0 0
BITMAP
0500
7FD0
7940
7F80
1BD0
BAD0
7F80
ENDCHAR
STARTCHAR t
ENCODING 116
SWIDTH 449 0
DWIDTH 5 0
BBX 5 9 0 0
BITMAP
1400
2D00
2E40
BFC0
BF80
2D00
2D00
2F80
0B80
ENDCHAR
STARTCHAR u
ENCODING 117
SWIDTH 606 0
DWIDTH 7 0
BBX 7 7 0 0
BITMAP
1010
7878
B878
B878
79B8
3FF8
1BB8
ENDCHAR
STARTCHAR v
ENCODING 118
SWIDTH 638 0
DWIDTH 8 0
BBX 8 7 0 0
BITMAP
1004
B42D
7C7C
3DB8
1FF0
0BD0
0380
ENDCHAR
STARTCHAR w
ENCODING 119
SWIDTH 793 0
DWIDTH 10 0
BBX 10 7 0 0
BITMAP
104040
B5E2D0
7AF7C0
3FFF80
2FBF40
1F6E00
0B1D00
ENDCHAR
STARTCHAR x
ENCODING 120
SWIDTH 567 0
DWIDTH 7 0
BBX 7 7 0 0
BITMAP
1010
B8B4
7FF4
1FD0
2FE0
BEF4
7474
ENDCHAR
STARTCHAR y
ENCODING 121
SWIDTH 604 0
DWIDTH 7 0
BBX 7 10 0 -3
BITMAP
1010
B43C
7CB8
2EF4
1FE0
0BD0
07C0
0B40
1F00
0900
ENDCHAR
STARTCHAR z
ENCODING 122
SWIDTH 586 0
DWIDTH 7 0
BBX 7 7 0 0
BITMAP
1550
7FF4
6BF4
07D0
2F40
BFF8
7FF8
ENDCHAR
STARTCHAR braceleft
ENCODING 123
SWIDTH 381 0
DWIDTH 5 0
BBX 5 13 0 -3
BITMAP
0100
0F40
1E00
1D00
1D00
2D00
B800
7C00
1D00
1D00
1D00
1F40
0640
ENDCHAR
STARTCHAR bar
ENCODING 124
SWIDTH 217 0
DWIDTH 3 0
BBX 2 13 0 -3
BITMAP
10
70
B0
B0
B0
B0
B0
B0
B0
B0
B0
B0
60
ENDCHAR
STARTCHAR braceright
ENCODING 125
SWIDTH 381 0
DWIDTH 5 0
BBX 5 13 0 -3
BITMAP
1000
B800
7C00
2C00
2C00
2D00
1F40
2E00
2C00
2C00
2C00
B800
6000
ENDCHAR
STARTCHAR asciitilde
ENCODING 126
SWIDTH 651 0
DWIDTH 8 0
BBX 7 3 0 2
BITMAP
0514
3FF8
7AF4
ENDCHAR
STARTCHAR exclamdown
ENCODING 161
SWIDTH 268 0
DWIDTH 3 0
BBX 3 9 0 -3
BITMAP
78
78
00
78
78
78
78
78
64
ENDCHAR
STARTCHAR cent
ENCODING 162
SWIDTH 434 0
DWIDTH 5 0
BBX 5 9 0 -1
BITMAP
0A00
0A00
2F40
7F80
B000
7A80
2F80
0A00
0A00
ENDCHAR
STARTCHAR sterling
ENCODING 163
SWIDTH 675 0
DWIDTH 8 0
BBX 8 9 0 0
BITMAP
02A4
0FFE
2E59
2D00
BFC0
6F40
1E00
2FFE
2FFE
ENDCHAR
STARTCHAR currency
ENCODING 164
SWIDTH 677 0
DWIDTH 8 0
BBX 8 9 0 0
BITMAP
B41E
7FFD
3EBC
781D
741E
782D
3FFC
7EBE
600A
ENDCHAR
STARTCHAR yen
ENCODING 165
SWIDTH 677 0
DWIDTH 8 0
BBX 8 9 0 0
BITMAP
6009
B82E
3D7D
1FB8
0FF4
2FF8
07D0
2FF8
02C0
ENDCHAR
STARTCHAR brokenbar
ENCODING 166
SWIDTH 215 0
DWIDTH 3 0
BBX 2 13 0 -3
BITMAP
10
70
B0
B0
B0
70
00
60
B0
B0
B0
B0
60
ENDCHAR
STARTCHAR section
ENCODING 167
SWIDTH 560 0
DWIDTH 7 0
BBX 7 13 0 -3
BITMAP
0100
2FD0
7EE0
B840
7F90
7FF0
B8B4
7EF4
2FF0
11F4
B9B4
7FE0
1A40
ENDCHAR
STARTCHAR dieresis
ENCODING 168
SWIDTH 489 0
DWIDTH 6 0
BBX 6 3 0 7
BITMAP
1040
79E0
74A0
ENDCHAR
STARTCHAR copyright
ENCODING 169
SWIDTH 711 0
DWIDTH 9 0
BBX 9 8 0 1
BITMAP
0BF800
355A00
A7E300
9D0340
9D0300
67E300
395A00
0AA400
ENDCHAR
STARTCHAR ordfeminine
ENCODING 170
SWIDTH 445 0
DWIDTH 5 0
BBX 5 5 0 4
BITMAP
1540
7FC0
B2C0
BBC0
2E80
ENDCHAR
STARTCHAR guillemotleft
ENCODING 171
SWIDTH 668 0
DWIDTH 8 0
BBX 8 6 0 0
BITMAP
0B1E
2E7D
B8F4
7DF8
2F3E
0609
ENDCHAR
STARTCHAR logicalnot
ENCODING 172
SWIDTH 526 0
DWIDTH 6 0
BBX 6 5 0 1
BITMAP
1550
BFF0
AAF0
0070
0010
ENDCHAR
STARTCHAR registered
ENCODING 174
SWIDTH 711 0
DWIDTH 9 0
BBX 9 8 0 1
BITMAP
0BF800
3A5A00
A7F300
977340
97F300
673700
395E00
0AA400
ENDCHAR
STARTCHAR degree
ENCODING 176
SWIDTH 407 0
DWIDTH 5 0
BBX 5 4 0 5
BITMAP
3F00
B740
B740
3E00
ENDCHAR
STARTCHAR plusminus
ENCODING 177
SWIDTH 505 0
DWIDTH 6 0
BBX 6 7 0 0
BITMAP
0500
1F40
BFE0
6F90
0A00
6A90
7FD0
ENDCHAR
STARTCHAR twosuperior
ENCODING 178
SWIDTH 455 0
DWIDTH 5 0
BBX 6 7 0 2
BITMAP
2E40
7F80
B2C0
1B80
7F40
BFD0
1540
ENDCHAR
STARTCHAR threesuperior
ENCODING 179
SWIDTH 457 0
DWIDTH 5 0
BBX 5 7 0 2
BITMAP
2F40
7BC0
17C0
0B80
B6C0
7F80
1500
ENDCHAR
STARTCHAR acute
ENCODING 180
SWIDTH 605 0
DWIDTH 7 0
BBX 4 3 2 7
BITMAP
04
BD
F8
ENDCHAR
STARTCHAR mu
ENCODING 181
SWIDTH 601 0
DWIDTH 7 0
BBX 7 10 0 -3
BITMAP
1010
7878
B878
B878
B9B8
BFF8
BFB8
B800
B800
6400
ENDCHAR
STARTCHAR paragraph
ENCODING 182
SWIDTH 614 0
DWIDTH 7 0
BBX 7 11 0 -3
BITMAP
1550
7FF8
BF38
BF38
2F38
0B38
0B38
0B38
0B38
0738
0624
ENDCHAR
STARTCHAR periodcentered
ENCODING 183
SWIDTH 237 0
DWIDTH 3 0
BBX 3 3 0 2
BITMAP
64
B8
10
ENDCHAR
STARTCHAR cedilla
ENCODING 184
SWIDTH 559 0
DWIDTH 7 0
BBX 3 4 2 -3
BITMAP
50
B4
B4
10
ENDCHAR
STARTCHAR onesuperior
ENCODING 185
SWIDTH 321 0
DWIDTH 4 0
BBX 4 7 0 2
BITMAP
1D
7D
BD
1D
1D
1D
04
ENDCHAR
STARTCHAR ordmasculine
ENCODING 186
SWIDTH 439 0
DWIDTH 5 0
BBX 5 5 0 4
BITMAP
1500
7F40
B2C0
B780
2F40
ENDCHAR
STARTCHAR guillemotright
ENCODING 187
SWIDTH 669 0
DWIDTH 8 0
BBX 8 6 0 0
BITMAP
B4E0
7DB8
1F2E
2F3D
BCF8
60A0
ENDCHAR
STARTCHAR onequarter
ENCODING 188
SWIDTH 786 0
DWIDTH 9 0
BBX 9 10 0 0
BITMAP
000400
2C1C00
7C2400
1C7000
1C9000
09DE80
036A80
063F80
0D2B80
180280
ENDCHAR
STARTCHAR onehalf
ENCODING 189
SWIDTH 804 0
DWIDTH 10 0
BBX 9 10 0 0
BITMAP
000400
2C1C00
7C2400
1C7000
1C9000
09DF40
037A80
061780
0D2F40
183FC0
ENDCHAR
STARTCHAR threequarters
ENCODING 190
SWIDTH 842 0
DWIDTH 10 0
BBX 10 11 0 -1
BITMAP
040100
2F0A00
274C00
0B6800
77B000
2EAAD0
01CDD0
025ED0
070AD0
0900D0
040000
ENDCHAR
STARTCHAR questiondown
ENCODING 191
SWIDTH 511 0
DWIDTH 6 0
BBX 6 10 0 -3
BITMAP
0500
0F40
0A00
0000
0F00
7E00
B440
B9F0
7FD0
0A40
ENDCHAR
STARTCHAR Agrave
ENCODING 192
SWIDTH 765 0
DWIDTH 9 0
BBX 9 12 0 0
BITMAP
010000
07E000
01A000
009000
02F000
07F400
0BFC00
0F7D00
2FBE00
3FFF40
B80B80
B40380
ENDCHAR
STARTCHAR Aacute
ENCODING 193
SWIDTH 765 0
DWIDTH 9 0
BBX 9 12 0 0
BITMAP
006400
02F800
019000
009000
02F000
07F400
0BFC00
0F7D00
2FBE00
3FFF40
B80B80
B40380
ENDCHAR
STARTCHAR Acircumflex
ENCODING 194
SWIDTH 765 0
DWIDTH 9 0
BBX 9 12 0 0
BITMAP
019000
0BFC00
051400
009000
02F000
07F400
0BFC00
0F7D00
2FBE00
3FFF40
B80B80
B40380
ENDCHAR
STARTCHAR Atilde
ENCODING 195
SWIDTH 765 0
DWIDTH 9 0
BBX 9 12 0 0
BITMAP
025400
0BF800
055000
009000
02F000
07F400
0BFC00
0F7D00
2FBE00
3FFF40
B80B80
B40380
ENDCHAR
STARTCHAR Adieresis
ENCODING 196
SWIDTH 765 0
DWIDTH 9 0
BBX 9 12 0 0
BITMAP
0A1800
0F2D00
051400
009000
02F000
07F400
0BFC00
0F7D00
2FBE00
3FFF40
B80B80
B40380
ENDCHAR
STARTCHAR Aring
ENCODING 197
SWIDTH 765 0
DWIDTH 9 0
BBX 9 11 0 0
BITMAP
01E000
032000
02E000
02F000
07F400
0BFC00
0F7D00
2FBE00
3FFF40
B80B80
B40380
ENDCHAR
STARTCHAR AE
ENCODING 198
SWIDTH 1148 0
DWIDTH 14 0
BBX 14 9 0 0
BITMAP
0006AA90
001FFFD0
007FD540
01FFD500
07E7FF00
0FEBEA00
3FFF8000
BD5BFFD0
B007FFD0
ENDCHAR
STARTCHAR Ccedilla
ENCODING 199
SWIDTH 679 0
DWIDTH 8 0
BBX 8 12 0 -3
BITMAP
06E8
1FFE
7E59
B800
B400
B800
7D09
2FFE
07F9
00E0
00A0
0040
ENDCHAR
STARTCHAR Egrave
ENCODING 200
SWIDTH 638 0
DWIDTH 8 0
BBX 8 12 0 0
BITMAP
0500
0BE0
0190
6AA8
BFFD
B954
B950
BFF0
BEA0
B800
BFFD
7FFD
ENDCHAR
STARTCHAR Eacute
ENCODING 201
SWIDTH 638 0
DWIDTH 8 0
BBX 8 12 0 0
BITMAP
0050
07F0
0640
6AA8
BFFD
B954
B950
BFF0
BEA0
B800
BFFD
7FFD
ENDCHAR
STARTCHAR Ecircumflex
ENCODING 202
SWIDTH 638 0
DWIDTH 8 0
BBX 8 12 0 0
BITMAP
0690
1FF4
0950
6AA8
BFFD
B954
B950
BFF0
BEA0
B800
BFFD
7FFD
ENDCHAR
STARTCHAR Edieresis
ENCODING 203
SWIDTH 638 0
DWIDTH 8 0
BBX 8 12 0 0
BITMAP
1864
2D78
1410
6AA8
BFFD
B954
B950
BFF0
BEA0
B800
BFFD
7FFD
ENDCHAR
STARTCHAR Igrave
ENCODING 204
SWIDTH 267 0
DWIDTH 3 0
BBX 4 12 -1 0
BITMAP
10
BE
1A
19
1E
1E
1E
1E
1E
1E
1E
1E
ENDCHAR
STARTCHAR Iacute
ENCODING 205
SWIDTH 269 0
DWIDTH 3 0
BBX 4 12 0 0
BITMAP
19
BE
64
64
78
78
78
78
78
78
78
78
ENDCHAR
STARTCHAR Icircumflex
ENCODING 206
SWIDTH 270 0
DWIDTH 3 0
BBX 5 12 -1 0
BITMAP
1900
BFC0
5140
1900
1E00
1E00
1E00
1E00
1E00
1E00
1E00
1E00
ENDCHAR
STARTCHAR Idieresis
ENCODING 207
SWIDTH 268 0
DWIDTH 3 0
BBX 6 12 -1 0
BITMAP
A180
F2D0
5140
1900
1E00
1E00
1E00
1E00
1E00
1E00
1E00
1E00
ENDCHAR
STARTCHAR Eth
ENCODING 208
SWIDTH 775 0
DWIDTH 9 0
BBX 9 9 0 0
BITMAP
1AA400
2FFE00
2E6F40
2E07C0
BF47C0
6E07C0
2E1F80
2FFE00
2FF800
ENDCHAR
STARTCHAR Ntilde
ENCODING 209
SWIDTH 720 0
DWIDTH 9 0
BBX 8 12 0 0
BITMAP
0654
0FF8
0450
640A
BD0F
BF0F
BF8F
BBDF
B9FF
B8BF
B82F
740F
ENDCHAR
STARTCHAR Ograve
ENCODING 210
SWIDTH 775 0
DWIDTH 9 0
BBX 9 12 0 0
BITMAP
014000
07F000
01A000
06E400
1FFE00
7E5F40
B807C0
B407C0
B807C0
7D1F80
2FFF00
0BF800
ENDCHAR
STARTCHAR Oacute
ENCODING 211
SWIDTH 775 0
DWIDTH 9 0
BBX 9 12 0 0
BITMAP
006400
02F800
019000
06E400
1FFE00
7E5F40
B807C0
B407C0
B807C0
7D1F80
2FFF00
0BF800
ENDCHAR
STARTCHAR Ocircumflex
ENCODING 212
SWIDTH 775 0
DWIDTH 9 0
BBX 9 12 0 0
BITMAP
019000
0BFC00
051400
06E400
1FFE00
7E5F40
B807C0
B407C0
B807C0
7D1F80
2FFF00
0BF800
ENDCHAR
STARTCHAR Otilde
ENCODING 213
SWIDTH 775 0
DWIDTH 9 0
BBX 9 12 0 0
BITMAP
019800
07FC00
011400
06E400
1FFE00
7E5F40
B807C0
B407C0
B807C0
7D1F80
2FFF00
0BF800
ENDCHAR
STARTCHAR Odieresis
ENCODING 214
SWIDTH 775 0
DWIDTH 9 0
BBX 9 12 0 0
BITMAP
0A1800
0F3D00
051400
06E400
1FFE00
7E5F40
B807C0
B407C0
B807C0
7D1F80
2FFF00
0BF800
ENDCHAR
STARTCHAR multiply
ENCODING 215
SWIDTH 521 0
DWIDTH 6 0
BBX 6 6 0 0
BITMAP
74A0
7EE0
2F80
2FD0
BAF0
2050
ENDCHAR
STARTCHAR Oslash
ENCODING 216
SWIDTH 775 0
DWIDTH 9 0
BBX 9 11 0 -1
BITMAP
000400
06EE00
1FFE00
7EBF40
B8BBC0
B5F7C0
BAD7C0
7FDF80
2FFF00
0FF800
050000
ENDCHAR
STARTCHAR Ugrave
ENCODING 217
SWIDTH 726 0
DWIDTH 9 0
BBX 9 12 0 0
BITMAP
050000
0FD000
06D000
640A00
B80F40
B80F40
B80F40
B80F40
780F00
7D2F00
2FFD00
0BF400
ENDCHAR
STARTCHAR Uacute
ENCODING 218
SWIDTH 726 0
DWIDTH 9 0
BBX 9 12 0 0
BITMAP
006400
02F800
019000
640A00
B80F40
B80F40
B80F40
B80F40
780F00
7D2F00
2FFD00
0BF400
ENDCHAR
STARTCHAR Ucircumflex
ENCODING 219
SWIDTH 726 0
DWIDTH 9 0
BBX 9 12 0 0
BITMAP
019000
0BF800
051400
640A00
B80F40
B80F40
B80F40
B80F40
780F00
7D2F00
2FFD00
0BF400
ENDCHAR
STARTCHAR Udieresis
ENCODING 220
SWIDTH 726 0
DWIDTH 9 0
BBX 9 12 0 0
BITMAP
092800
1E3C00
051400
640A00
B80F40
B80F40
B80F40
B80F40
780F00
7D2F00
2FFD00
0BF400
ENDCHAR
STARTCHAR Yacute
ENCODING 221
SWIDTH 686 0
DWIDTH 8 0
BBX 8 12 0 0
BITMAP
0060
07F0
0240
700A
B82F
3D7D
1FB8
0BF0
03D0
03D0
03D0
02C0
ENDCHAR
STARTCHAR Thorn
ENCODING 222
SWIDTH 634 0
DWIDTH 8 0
BBX 8 9 0 0
BITMAP
6400
BA90
BFF4
BABC
B83D
B9BC
BFF8
BE90
7400
ENDCHAR
STARTCHAR germandbls
ENCODING 223
SWIDTH 633 0
DWIDTH 8 0
BBX 8 10 0 -1
BITMAP
2FE0
7EF4
78F0
BAD0
BAE0
B8B8
B82D
BAFD
7AF8
1000
ENDCHAR
STARTCHAR agrave
ENCODING 224
SWIDTH 596 0
DWIDTH 7 0
BBX 7 9 0 0
BITMAP
0F90
06D0
0110
2FF8
7FF8
B8B8
B9B8
7FF8
1BB8
ENDCHAR
STARTCHAR aacute
ENCODING 225
SWIDTH 596 0
DWIDTH 7 0
BBX 7 9 0 0
BITMAP
07E0
0B90
0510
2FF8
7FF8
B8B8
B9B8
7FF8
1BB8
ENDCHAR
STARTCHAR acircumflex
ENCODING 226
SWIDTH 596 0
DWIDTH 7 0
BBX 7 10 0 0
BITMAP
0100
1FE0
1EB0
0110
2FF8
7FF8
B8B8
B9B8
7FF8
1BB8
ENDCHAR
STARTCHAR atilde
ENCODING 227
SWIDTH 596 0
DWIDTH 7 0
BBX 7 10 0 0
BITMAP
0100
1FB4
19E0
0110
2FF8
7FF8
B8B8
B9B8
7FF8
1BB8
ENDCHAR
STARTCHAR adieresis
ENCODING 228
SWIDTH 596 0
DWIDTH 7 0
BBX 7 10 0 0
BITMAP
0410
2DB8
2974
0110
2FF8
7FF8
B8B8
B9B8
7FF8
1BB8
ENDCHAR
STARTCHAR aring
ENCODING 229
SWIDTH 596 0
DWIDTH 7 0
BBX 7 9 0 0
BITMAP
0280
0680
0250
2FF8
7FF8
B8B8
B9B8
7FF8
1BB8
ENDCHAR
STARTCHAR ae
ENCODING 230
SWIDTH 910 0
DWIDTH 11 0
BBX 11 7 0 0
BITMAP
050140
7FEFE0
7EFEB8
15BEB8
7EFD50
B9FEB0
7F9FE0
ENDCHAR
STARTCHAR ccedilla
ENCODING 231
SWIDTH 524 0
DWIDTH 6 0
BBX 6 10 0 -3
BITMAP
0540
2FE0
7EE0
B800
B840
7FF0
1FD0
0780
0780
0100
ENDCHAR
STARTCHAR egrave
ENCODING 232
SWIDTH 573 0
DWIDTH 7 0
BBX 7 10 0 0
BITMAP
0400
1F80
0BC0
0540
2FF0
7EF4
BAB4
BE90
7EB0
1FF0
ENDCHAR
STARTCHAR eacute
ENCODING 233
SWIDTH 573 0
DWIDTH 7 0
BBX 7 10 0 0
BITMAP
0040
0BD0
0B90
0540
2FF0
7EF4
BAB4
BE90
7EB0
1FF0
ENDCHAR
STARTCHAR ecircumflex
ENCODING 234
SWIDTH 573 0
DWIDTH 7 0
BBX 7 10 0 0
BITMAP
0100
2FE0
2EA0
0540
2FF0
7EF4
BAB4
BE90
7EB0
1FF0
ENDCHAR
STARTCHAR edieresis
ENCODING 235
SWIDTH 573 0
DWIDTH 7 0
BBX 7 10 0 0
BITMAP
1010
7CF0
28A0
0540
2FF0
7EF4
BAB4
BE90
7EB0
1FF0
ENDCHAR
STARTCHAR igrave
ENCODING 236
SWIDTH 255 0
DWIDTH 3 0
BBX 4 10 -1 0
BITMAP
10
7E
6E
04
1E
2E
2E
2E
2E
1D
ENDCHAR
STARTCHAR iacute
ENCODING 237
SWIDTH 255 0
DWIDTH 3 0
BBX 4 9 0 0
BITMAP
7E
B9
10
78
B8
B8
B8
B8
74
ENDCHAR
STARTCHAR icircumflex
ENCODING 238
SWIDTH 255 0
DWIDTH 3 0
BBX 5 10 -1 0
BITMAP
0400
BF80
BA80
0400
1E00
2E00
2E00
2E00
2E00
1D00
ENDCHAR
STARTCHAR idieresis
ENCODING 239
SWIDTH 255 0
DWIDTH 3 0
BBX 6 10 -1 0
BITMAP
4040
F3D0
A280
0400
1E00
2E00
2E00
2E00
2E00
1D00
ENDCHAR
STARTCHAR eth
ENCODING 240
SWIDTH 585 0
DWIDTH 7 0
BBX 7 10 0 0
BITMAP
0140
0F80
0BD0
05B0
1FF4
7EF8
B478
B8B8
7FF4
1FD0
ENDCHAR
STARTCHAR ntilde
ENCODING 241
SWIDTH 606 0
DWIDTH 7 0
BBX 7 10 0 0
BITMAP
0400
1FB0
1AD0
1140
7FE0
BFF4
B878
B878
B878
7478
ENDCHAR
STARTCHAR ograve
ENCODING 242
SWIDTH 600 0
DWIDTH 7 0
BBX 7 10 0 0
BITMAP
0400
0F80
0BD0
0540
2FE0
7EF8
B87C
B8B8
7FF4
1FD0
ENDCHAR
STARTCHAR oacute
ENCODING 243
SWIDTH 600 0
DWIDTH 7 0
BBX 7 9 0 0
BITMAP
07E0
0B90
0540
2FE0
7EF8
B87C
B8B8
7FF4
1FD0
ENDCHAR
STARTCHAR ocircumflex
ENCODING 244
SWIDTH 600 0
DWIDTH 7 0
BBX 7 10 0 0
BITMAP
0100
1FE0
1EA0
0540
2FE0
7EF8
B87C
B8B8
7FF4
1FD0
ENDCHAR
STARTCHAR otilde
ENCODING 245
SWIDTH 600 0
DWIDTH 7 0
BBX 7 10 0 0
BITMAP
0400
1FB0
1AD0
0540
2FE0
7EF8
B87C
B8B8
7FF4
1FD0
ENDCHAR
STARTCHAR odieresis
ENCODING 246
SWIDTH 600 0
DWIDTH 7 0
BBX 7 10 0 0
BITMAP
1010
3CF4
28A0
0540
2FE0
7EF8
B87C
B8B8
7FF4
1FD0
ENDCHAR
STARTCHAR divide
ENCODING 247
SWIDTH 503 0
DWIDTH 6 0
BBX 6 7 0 0
BITMAP
0500
0F00
0500
BFE0
6A90
0B00
0A00
ENDCHAR
STARTCHAR oslash
ENCODING 248
SWIDTH 600 0
DWIDTH 7 0
BBX 7 10 0 -2
BITMAP
0074
05F4
2FF0
7EF8
B87C
B8B8
7FF4
2FD0
7C00
2400
ENDCHAR
STARTCHAR ugrave
ENCODING 249
SWIDTH 606 0
DWIDTH 7 0
BBX 7 10 0 0
BITMAP
0400
0F80
0BD0
1010
7878
B878
B878
79B8
3FF8
1BB8
ENDCHAR
STARTCHAR uacute
ENCODING 250
SWIDTH 606 0
DWIDTH 7 0
BBX 7 9 0 0
BITMAP
06E0
0B90
1010
7878
B878
B878
79B8
3FF8
1BB8
ENDCHAR
STARTCHAR ucircumflex
ENCODING 251
SWIDTH 606 0
DWIDTH 7 0
BBX 7 10 0 0
BITMAP
0100
1FE0
1EA0
1010
7878
B878
B878
79B8
3FF8
1BB8
ENDCHAR
STARTCHAR udieresis
ENCODING 252
SWIDTH 606 0
DWIDTH 7 0
BBX 7 10 0 0
BITMAP
1410
3CB4
28A0
1010
7878
B878
B878
79B8
3FF8
1BB8
ENDCHAR
STARTCHAR yacute
ENCODING 253
SWIDTH 604 0
DWIDTH 7 0
BBX 7 12 0 -3
BITMAP
06E0
0B90
1010
B43C
7CB8
2EF4
1FE0
0BD0
07C0
0B40
1F00
0900
ENDCHAR
STARTCHAR thorn
ENCODING 254
SWIDTH 580 0
DWIDTH 7 0
BBX 7 13 0 -3
BITMAP
1000
B400
B400
B500
BFE0
BFF4
B8B8
B8B8
BFF0
BB90
B400
B400
6400
ENDCHAR
STARTCHAR ydieresis
ENCODING 255
SWIDTH 604 0
DWIDTH 7 0
BBX 7 13 0 -3
BITMAP
0410
3CB4
2864
1010
B43C
7CB8
2EF4
1FE0
0BD0
07C0
0B40
1F00
0900
ENDCHAR
STARTCHAR dotlessi
ENCODING 305
SWIDTH 255 0
DWIDTH 3 0
BBX 3 7 0 0
BITMAP
10
78
B8
B8
B8
B8
74
ENDCHAR
STARTCHAR Lslash
ENCODING 321
SWIDTH 687 0
DWIDTH 8 0
BBX 8 9 0 0
BITMAP
0900
1E00
1E00
1FD0
BF90
6E00
1E00
1FAA
1FFE
ENDCHAR
STARTCHAR lslash
ENCODING 322
SWIDTH 468 0
DWIDTH 6 0
BBX 6 10 0 0
BITMAP
0400
1E00
1E00
1E00
1FD0
BF90
6E00
1E00
1F80
0B80
ENDCHAR
STARTCHAR OE
ENCODING 338
SWIDTH 1092 0
DWIDTH 13 0
BBX 13 9 0 0
BITMAP
06AAAA40
1FFFFF80
7E5F5500
B80F5400
B40FFD00
B80FA900
7D0F0000
2FFFFF80
06FFFF80
ENDCHAR
STARTCHAR oe
ENCODING 339
SWIDTH 944 0
DWIDTH 11 0
BBX 11 7 0 0
BITMAP
054140
2FEFF4
7EFEBC
B87EBC
B8BE54
7FFFB4
1FDBF4
ENDCHAR
STARTCHAR Scaron
ENCODING 352
SWIDTH 583 0
DWIDTH 7 0
BBX 7 12 0 0
BITMAP
1990
2FE0
0640
1B90
7FF0
7850
7E40
2FF0
06F8
74B8
BFF4
2FD0
ENDCHAR
STARTCHAR scaron
ENCODING 353
SWIDTH 489 0
DWIDTH 6 0
BBX 6 10 0 0
BITMAP
1000
7FC0
2E40
0500
7FD0
7940
7F80
1BD0
BAD0
7F80
ENDCHAR
STARTCHAR Ydieresis
ENCODING 376
SWIDTH 686 0
DWIDTH 8 0
BBX 8 12 0 0
BITMAP
1924
2E78
0414
700A
B82F
3D7D
1FB8
0BF0
03D0
03D0
03D0
02C0
ENDCHAR
STARTCHAR Zcaron
ENCODING 381
SWIDTH 643 0
DWIDTH 8 0
BBX 8 12 0 0
BITMAP
0960
1FF0
0640
6AA8
BFFC
15F8
02F0
07D0
1F40
3E00
BFFD
7FFD
ENDCHAR
STARTCHAR zcaron
ENCODING 382
SWIDTH 586 0
DWIDTH 7 0
BBX 7 9 0 0
BITMAP
2EF0
1B90
1550
7FF4
6BF4
07D0
2F40
BFF8
7FF8
ENDCHAR
STARTCHAR florin
ENCODING 402
SWIDTH 529 0
DWIDTH 6 0
BBX 6 12 0 -3
BITMAP
01B0
07F0
0B80
2FF0
3FF0
0F40
0F00
0F00
1F00
2E00
FD00
A400
ENDCHAR
STARTCHAR circumflex
ENCODING 710
SWIDTH 603 0
DWIDTH 7 0
BBX 5 3 1 7
BITMAP
0400
7F80
7A80
ENDCHAR
STARTCHAR caron
ENCODING 711
SWIDTH 600 0
DWIDTH 7 0
BBX 5 2 1 7
BITMAP
BBC0
6E40
ENDCHAR
STARTCHAR dotaccent
ENCODING 729
SWIDTH 285 0
DWIDTH 3 0
BBX 3 3 0 8
BITMAP
14
78
24
ENDCHAR
STARTCHAR ring
ENCODING 730
SWIDTH 378 0
DWIDTH 5 0
BBX 4 3 0 8
BITMAP
2D
62
2D
ENDCHAR
STARTCHAR ogonek
ENCODING 731
SWIDTH 570 0
DWIDTH 7 0
BBX 3 4 2 -3
BITMAP
10
A4
B4
10
ENDCHAR
STARTCHAR tilde
ENCODING 732
SWIDTH 584 0
DWIDTH 7 0
BBX 5 3 1 7
BITMAP
1000
BF80
9A40
ENDCHAR
STARTCHAR endash
ENCODING 8211
SWIDTH 561 0
DWIDTH 7 0
BBX 7 3 0 2
BITMAP
1550
BFF8
6AA4
ENDCHAR
STARTCHAR emdash
ENCODING 8212
SWIDTH 693 0
DWIDTH 8 0
BBX 8 3 0 2
BITMAP
1555
BFFF
6AAA
ENDCHAR
STARTCHAR quoteleft
ENCODING 8216
SWIDTH 237 0
DWIDTH 3 0
BBX 3 5 0 4
BITMAP
14
70
B4
B8
10
ENDCHAR
STARTCHAR quoteright
ENCODING 8217
SWIDTH 237 0
DWIDTH 3 0
BBX 3 5 0 4
BITMAP
64
B8
34
70
40
ENDCHAR
STARTCHAR quotesinglbase
ENCODING 8218
SWIDTH 237 0
DWIDTH 3 0
BBX 3 5 0 -2
BITMAP
10
B4
B4
34
A0
ENDCHAR
STARTCHAR quotedblleft
ENCODING 8220
SWIDTH 482 0
DWIDTH 6 0
BBX 6 5 0 4
BITMAP
1490
71C0
B6D0
BAD0
1040
ENDCHAR
STARTCHAR quotedblright
ENCODING 8221
SWIDTH 482 0
DWIDTH 6 0
BBX 6 5 0 4
BITMAP
6590
BAD0
35D0
7280
4100
ENDCHAR
STARTCHAR quotedblbase
ENCODING 8222
SWIDTH 482 0
DWIDTH 6 0
BBX 6 5 0 -2
BITMAP
1040
B6D0
B6D0
34C0
A240
ENDCHAR
STARTCHAR dagger
ENCODING 8224
SWIDTH 527 0
DWIDTH 6 0
BBX 6 12 0 -3
BITMAP
0B00
0F40
0F40
BFF0
6FA0
0F40
0F40
0F40
0F40
0F40
0F00
0100
ENDCHAR
STARTCHAR daggerdbl
ENCODING 8225
SWIDTH 527 0
DWIDTH 6 0
BBX 6 12 0 -3
BITMAP
0B00
0F40
0F40
BFF0
6FA0
0F40
5F90
BFF0
5F90
0F40
0F00
0100
ENDCHAR
STARTCHAR bullet
ENCODING 8226
SWIDTH 342 0
DWIDTH 4 0
BBX 4 4 0 2
BITMAP
14
BE
BE
7D
ENDCHAR
STARTCHAR ellipsis
ENCODING 8230
SWIDTH 911 0
DWIDTH 11 0
BBX 11 3 0 0
BITMAP
101010
B4B8B8
B4B474
ENDCHAR
STARTCHAR perthousand
ENCODING 8240
SWIDTH 1223 0
DWIDTH 15 0
BBX 14 11 0 -1
BITMAP
00010000
2A060000
7B4D0000
73680000
7F700000
19A14140
00DFD7F0
029CAA70
071EDAB0
090B87E0
04000000
ENDCHAR
STARTCHAR guilsinglleft
ENCODING 8249
SWIDTH 383 0
DWIDTH 5 0
BBX 5 7 0 0
BITMAP
0100
0B40
2F00
BC00
7D00
1F40
0700
ENDCHAR
STARTCHAR guilsinglright
ENCODING 8250
SWIDTH 383 0
DWIDTH 5 0
BBX 5 7 0 0
BITMAP
1000
B400
7D00
1F40
2F00
BD00
7400
ENDCHAR
STARTCHAR fraction
ENCODING 8260
SWIDTH 433 0
DWIDTH 5 0
BBX 6 10 0 0
BITMAP
0010
0030
00A0
01C0
0240
0700
0900
1C00
2400
6000
ENDCHAR
STARTCHAR Euro
ENCODING 8364
SWIDTH 612 0
DWIDTH 7 0
BBX 7 10 0 0
BITMAP
0050
07FC
1FF8
2E50
BFF4
7D50
BFF4
2E00
0FFC
06FC
ENDCHAR
STARTCHAR trademark
ENCODING 8482
SWIDTH 840 0
DWIDTH 10 0
BBX 10 5 0 3
BITMAP
6A6050
BE7DE0
1C3FE0
1C3BE0
1C34E0
ENDCHAR
STARTCHAR minus
ENCODING 8722
SWIDTH 581 0
DWIDTH 7 0
BBX 7 3 0 2
BITMAP
1550
BFF8
6AA4
ENDCHAR
STARTCHAR f_f
ENCODING 64256
SWIDTH 803 0
DWIDTH 10 0
BBX 10 10 0 0
BITMAP
014140
0FCBC0
2F9F80
2E6E40
BFFFD0
BFBF90
2D1E00
2D1E00
2D1E00
2D1D00
ENDCHAR
STARTCHAR fi
ENCODING 64257
SWIDTH 709 0
DWIDTH 9 0
BBX 8 10 0 0
BITMAP
0104
0FCF
2F8A
2E45
BFDF
BF8F
2D0F
2D0F
2D0F
2D0F
ENDCHAR
STARTCHAR fl
ENCODING 64258
SWIDTH 774 0
DWIDTH 9 0
BBX 9 10 0 0
BITMAP
010400
0FCF00
2F8F00
2E4F00
BFDF00
BF9F00
2D0F00
2D0F00
2D0FC0
2D0BC0
ENDCHAR
STARTCHAR f_f_i
ENCODING 64259
SWIDTH 1059 0
DWIDTH 13 0
BBX 13 10 0 0
BITMAP
01414000
0FCBCB40
2F9F8A00
2E6E4100
BFFFDB40
BFBF9F40
2D1E0F40
2D1E0F40
2D1E0F40
2D1D0B00
ENDCHAR
STARTCHAR .notdef
ENCODING -1
SWIDTH 500 0
DWIDTH 6 0
BBX 1 1 0 0
BITMAP
00
ENDCHAR
STARTCHAR .null
ENCODING -1
SWIDTH 0 0
DWIDTH 0 0
BBX 1 1 0 0
BITMAP
00
ENDCHAR
STARTCHAR nonmarkingreturn
ENCODING -1
SWIDTH 333 0
DWIDTH 4 0
BBX 1 1 0 0
BITMAP
00
ENDCHAR
STARTCHAR f_t
ENCODING -1
SWIDTH 814 0
DWIDTH 10 0
BBX 10 10 0 0
BITMAP
014000
0FC500
2F9E00
2E6E40
BFFFE0
BFBF90
2D1E00
2D1E00
2D0FC0
2D07C0
ENDCHAR
STARTCHAR t_t
ENCODING -1
SWIDTH 794 0
DWIDTH 10 0
BBX 10 9 0 0
BITMAP
140400
2D2D00
2E6E40
BFFFD0
BFBF80
2D2E00
2D2E00
2F9FC0
0B8BC0
ENDCHAR
STARTCHAR l_l
ENCODING -1
SWIDTH 626 0
DWIDTH 8 0
BBX 8 10 0 0
BITMAP
1040
79E0
B9E0
B9E0
B9E0
B9E0
B9E0
B9F0
7DFD
2D7D
ENDCHAR
STARTCHAR j_j
ENCODING -1
SWIDTH 521 0
DWIDTH 6 0
BBX 8 13 -2 -3
BITMAP
0100
075E
064A
0104
079E
0B9E
0B9E
0B9E
0B9E
0B9E
1F6E
BF7D
6864
ENDCHAR
ENDFONT
